#!OML:ASF F:\VICON\USERDATA\INSTALL\rory3\rory3.ASF
:FULLY-SPECIFIED
:DEGREES
49
root -0.0804685 17.3535 -0.519571 1.55762 3.47044 4.52682
lowerback 18.327 -0.247779 -7.07461
upperback 2.57623 -1.97079 -3.18572
thorax -7.36509 -0.796377 1.05503
lowerneck -5.17318 -0.342459 -0.869204
upperneck -11.1052 -0.246657 2.33462
head -2.63268 -0.144882 0.894849
rclavicle 1.74931e-014 -1.59028e-015
rhumerus -48.1932 4.955 -84.0595
rradius 76.2728
rwrist 7.24311
rhand -33.5294 31.8202
rfingers 7.12502
rthumb -6.72525 1.94704
lclavicle 1.74931e-014 -1.59028e-015
lhumerus -23.9475 -13.6631 85.7254
lradius 109.076
lwrist 28.8709
lhand -31.7797 10.8242
lfingers 7.12502
lthumb -5.03601 40.7444
rfemur -20.2349 -11.5395 10.6272
rtibia 109.358
rfoot 15.5385 -8.01355
rtoes 22.8278
lfemur -13.145 -3.84521 -30.3514
ltibia 38.8196
lfoot -17.0823 1.72582
ltoes -19.3203
50
root -0.0573971 17.3602 -0.0281067 1.8862 3.30029 4.59853
lowerback 18.062 -0.44115 -7.02996
upperback 2.34261 -2.2043 -3.14431
thorax -7.45962 -0.903122 1.12622
lowerneck -4.77249 -0.0950393 -1.01756
upperneck -11.119 0.0663488 2.08387
head -2.7135 0.0205658 0.839045
rclavicle -3.37934e-015 -2.14687e-014
rhumerus -49.4819 4.32177 -83.5543
rradius 76.1386
rwrist 6.51824
rhand -33.3126 32.2334
rfingers 7.12502
rthumb -6.51599 2.35363
lclavicle -3.37934e-015 -2.14687e-014
lhumerus -22.3563 -14.0142 85.8287
lradius 109.575
lwrist 28.6982
lhand -30.5879 12.0374
lfingers 7.12502
lthumb -3.8852 41.9818
rfemur -23.3924 -11.3837 11.0241
rtibia 110.019
rfoot 12.5611 -7.64519
rtoes 17.1094
lfemur -11.6159 -3.70916 -30.5074
ltibia 38.873
lfoot -17.855 1.80302
ltoes -19.2302
51
root -0.0390123 17.3685 0.456223 2.09659 3.26288 4.78464
lowerback 18.0103 -0.740264 -7.08341
upperback 2.14932 -2.61638 -3.13607
thorax -7.61168 -1.09158 1.26212
lowerneck -4.53894 0.139632 -0.95171
upperneck -11.1469 0.336498 1.58789
head -2.76629 0.163647 0.666483
rclavicle 1.74931e-014 1.19271e-014
rhumerus -50.5962 3.96709 -83.1864
rradius 76.2509
rwrist 5.39394
rhand -33.1002 32.0725
rfingers 7.12502
rthumb -6.3109 2.18647
lclavicle 1.74931e-014 1.19271e-014
lhumerus -21.1111 -13.9503 85.8887
lradius 110.183
lwrist 28.5461
lhand -29.8357 16.2209
lfingers 7.12502
lthumb -3.15878 46.1773
rfemur -26.3251 -11.2332 11.3032
rtibia 110.244
rfoot 10.331 -7.37509
rtoes 12.3973
lfemur -9.72649 -3.66724 -30.7715
ltibia 38.6609
lfoot -18.4148 1.86845
ltoes -20.6152
52
root -0.0380079 17.3567 0.905057 2.21671 3.49163 4.83046
lowerback 18.2952 -1.11823 -7.14954
upperback 2.10364 -3.14858 -3.04346
thorax -7.77124 -1.33689 1.53333
lowerneck -4.85353 0.415649 -0.841121
upperneck -11.0758 0.669715 1.1673
head -2.68772 0.336757 0.509107
rclavicle 1.41137e-014 2.38542e-014
rhumerus -51.3956 3.75285 -82.982
rradius 76.5845
rwrist 4.42222
rhand -33.3392 31.2633
rfingers 7.12502
rthumb -6.54169 1.38432
lclavicle 1.41137e-014 2.38542e-014
lhumerus -19.4717 -13.8441 85.7367
lradius 110.644
lwrist 28.3857
lhand -32.0078 12.8502
lfingers 7.12502
lthumb -5.25624 42.765
rfemur -29.5117 -11.2252 11.8908
rtibia 110.28
rfoot 9.8226 -6.72762
rtoes 10.9668
lfemur -7.63612 -3.84272 -30.8186
ltibia 37.9584
lfoot -18.2317 1.93786
ltoes -24.3274
53
root -0.0343852 17.4021 1.37891 2.34764 3.2456 4.80507
lowerback 18.3904 -1.30466 -7.2795
upperback 1.97994 -3.42808 -2.92327
thorax -7.92267 -1.45723 1.80722
lowerneck -4.73328 0.695942 -0.792968
upperneck -10.9836 1.0137 0.816836
head -2.67876 0.514339 0.385463
rclavicle -1.05356e-014 -9.54166e-015
rhumerus -52.3567 3.68323 -82.8464
rradius 76.9137
rwrist 3.60502
rhand -33.825 30.6901
rfingers 7.12502
rthumb -7.01063 0.826185
lclavicle -1.05356e-014 -9.54166e-015
lhumerus -18.0661 -13.9345 85.62
lradius 111.219
lwrist 28.2148
lhand -32.2226 12.7268
lfingers 7.12502
lthumb -5.46366 42.6364
rfemur -32.8215 -10.4213 12.7696
rtibia 109.548
rfoot 11.1272 -5.94502
rtoes 12.5929
lfemur -5.52135 -3.46194 -30.7989
ltibia 36.7412
lfoot -17.3976 1.74803
ltoes -26.9592
54
root -0.0215562 17.4751 1.88987 2.5376 3.1131 5.24802
lowerback 18.0401 -1.48249 -7.723
upperback 1.89066 -3.72112 -2.92078
thorax -7.77657 -1.58831 2.1137
lowerneck -4.67167 0.899012 -0.784153
upperneck -10.5999 1.25351 0.448277
head -2.55937 0.641983 0.264362
rclavicle -2.38542e-014 2.06736e-014
rhumerus -53.2645 3.54733 -82.609
rradius 77.0638
rwrist 2.8169
rhand -34.2605 30.7989
rfingers 7.12502
rthumb -7.43102 0.949412
lclavicle -2.38542e-014 2.06736e-014
lhumerus -17.1989 -14.032 85.7695
lradius 111.987
lwrist 27.9649
lhand -32.1028 13.5938
lfingers 7.12502
lthumb -5.34796 43.5063
rfemur -35.2689 -9.65106 12.8584
rtibia 108.085
rfoot 10.9126 -4.95071
rtoes 13.402
lfemur -3.1635 -3.06757 -31.28
ltibia 35.1113
lfoot -16.2609 1.2419
ltoes -28.3618
55
root -0.00671829 17.5569 2.42505 2.61803 3.39436 6.1433
lowerback 17.8817 -1.79792 -8.43566
upperback 1.77956 -4.27825 -3.0573
thorax -7.72211 -1.83496 2.48508
lowerneck -5.08981 1.13142 -0.644613
upperneck -9.79436 1.52798 -0.0153788
head -2.21439 0.783135 0.0966298
rclavicle 2.82274e-014 -1.35174e-014
rhumerus -54.2911 3.55911 -82.5286
rradius 77.3621
rwrist 1.92901
rhand -34.5815 30.9618
rfingers 7.12502
rthumb -7.74089 1.12346
lclavicle 2.82274e-014 -1.35174e-014
lhumerus -16.807 -14.0692 86.0506
lradius 112.796
lwrist 27.4661
lhand -32.3734 12.1617
lfingers 7.12502
lthumb -5.60923 42.0675
rfemur -36.5023 -9.35777 12.0679
rtibia 106.114
rfoot 9.45686 -3.92973
rtoes 13.2446
lfemur -0.264935 -3.03032 -32.2108
ltibia 33.0444
lfoot -14.1131 0.366367
ltoes -28.9816
56
root 0.000580681 17.6418 2.94939 2.67707 3.66274 6.40452
lowerback 18.0834 -2.1686 -8.5494
upperback 1.47911 -4.83196 -3.00422
thorax -8.09525 -2.07107 2.74979
lowerneck -5.29115 1.42792 -0.579852
upperneck -9.05922 1.89815 -0.419693
head -1.9353 0.971329 -0.0370174
rclavicle 1.90833e-014 1.19271e-014
rhumerus -55.5789 3.70595 -82.4866
rradius 78.0552
rwrist 0.324972
rhand -35.9624 29.9418
rfingers 7.12502
rthumb -9.07348 0.157001
lclavicle 1.90833e-014 1.19271e-014
lhumerus -16.7084 -14.086 86.3754
lradius 113.513
lwrist 26.9539
lhand -32.6385 9.55839
lfingers 7.12502
lthumb -5.86517 39.4572
rfemur -37.8054 -8.92614 12.1777
rtibia 103.793
rfoot 8.44496 -3.30842
rtoes 11.667
lfemur 2.50088 -3.01075 -32.3424
ltibia 30.8641
lfoot -11.7525 -0.579062
ltoes -29.1036
57
root 0.00215744 17.7179 3.46353 2.95522 3.75942 6.31236
lowerback 17.8948 -2.4855 -8.46483
upperback 1.16133 -5.22166 -2.81219
thorax -8.28929 -2.24155 2.99682
lowerneck -5.28782 1.76173 -0.437283
upperneck -8.51275 2.31639 -0.846177
head -1.75245 1.18092 -0.189788
rclavicle 2.50469e-014 5.00937e-014
rhumerus -56.8797 3.75676 -82.3078
rradius 79.1684
rwrist -1.7346
rhand -35.61 28.2142
rfingers 7.12502
rthumb -8.73351 -1.58508
lclavicle 2.50469e-014 5.00937e-014
lhumerus -16.504 -14.2773 86.5453
lradius 114.193
lwrist 26.9608
lhand -33.0486 8.10456
lfingers 7.12502
lthumb -6.26114 37.992
rfemur -39.5481 -8.24714 12.8654
rtibia 101.186
rfoot 7.5097 -2.813
rtoes 9.4006
lfemur 5.00924 -2.87963 -32.0137
ltibia 28.6003
lfoot -9.04565 -1.84746
ltoes -29.2712
